%TF.FileFunction,Other,Comment*%
%FSLAX46Y46*%
G04 Gerber Fmt 4.6, Leading zero omitted, Abs format (unit mm)*
G04 Created by KiCad (PCBNEW (2014-12-19 BZR 5328)-product) date 23/12/2014 01:10:06*
%MOMM*%
G01*
G04 APERTURE LIST*
%ADD10C,0.127000*%
%ADD11C,0.050000*%
G04 APERTURE END LIST*
D10*
D11*
X133047429Y-94059524D02*
X133056953Y-94050000D01*
X133076001Y-94040476D01*
X133123620Y-94040476D01*
X133142667Y-94050000D01*
X133152191Y-94059524D01*
X133161715Y-94078571D01*
X133161715Y-94097619D01*
X133152191Y-94126190D01*
X133037905Y-94240476D01*
X133161715Y-94240476D01*
X133237905Y-94059524D02*
X133247429Y-94050000D01*
X133266477Y-94040476D01*
X133314096Y-94040476D01*
X133333143Y-94050000D01*
X133342667Y-94059524D01*
X133352191Y-94078571D01*
X133352191Y-94097619D01*
X133342667Y-94126190D01*
X133228381Y-94240476D01*
X133352191Y-94240476D01*
X133523619Y-94107143D02*
X133523619Y-94240476D01*
X133437905Y-94107143D02*
X133437905Y-94211905D01*
X133447429Y-94230952D01*
X133466476Y-94240476D01*
X133495048Y-94240476D01*
X133514096Y-94230952D01*
X133523619Y-94221429D01*
X133685524Y-94135714D02*
X133618857Y-94135714D01*
X133618857Y-94240476D02*
X133618857Y-94040476D01*
X133714095Y-94040476D01*
X131635429Y-92762476D02*
X131654477Y-92762476D01*
X131673525Y-92772000D01*
X131683048Y-92781524D01*
X131692572Y-92800571D01*
X131702096Y-92838667D01*
X131702096Y-92886286D01*
X131692572Y-92924381D01*
X131683048Y-92943429D01*
X131673525Y-92952952D01*
X131654477Y-92962476D01*
X131635429Y-92962476D01*
X131616382Y-92952952D01*
X131606858Y-92943429D01*
X131597334Y-92924381D01*
X131587810Y-92886286D01*
X131587810Y-92838667D01*
X131597334Y-92800571D01*
X131606858Y-92781524D01*
X131616382Y-92772000D01*
X131635429Y-92762476D01*
X131787810Y-92943429D02*
X131797334Y-92952952D01*
X131787810Y-92962476D01*
X131778286Y-92952952D01*
X131787810Y-92943429D01*
X131787810Y-92962476D01*
X131987810Y-92962476D02*
X131873524Y-92962476D01*
X131930667Y-92962476D02*
X131930667Y-92762476D01*
X131911619Y-92791048D01*
X131892572Y-92810095D01*
X131873524Y-92819619D01*
X132159238Y-92829143D02*
X132159238Y-92962476D01*
X132073524Y-92829143D02*
X132073524Y-92933905D01*
X132083048Y-92952952D01*
X132102095Y-92962476D01*
X132130667Y-92962476D01*
X132149715Y-92952952D01*
X132159238Y-92943429D01*
X132321143Y-92857714D02*
X132254476Y-92857714D01*
X132254476Y-92962476D02*
X132254476Y-92762476D01*
X132349714Y-92762476D01*
X131748213Y-91617287D02*
X131633927Y-91617287D01*
X131691070Y-91617287D02*
X131691070Y-91417287D01*
X131672022Y-91445859D01*
X131652975Y-91464906D01*
X131633927Y-91474430D01*
X131872022Y-91417287D02*
X131891070Y-91417287D01*
X131910118Y-91426811D01*
X131919641Y-91436335D01*
X131929165Y-91455382D01*
X131938689Y-91493478D01*
X131938689Y-91541097D01*
X131929165Y-91579192D01*
X131919641Y-91598240D01*
X131910118Y-91607763D01*
X131891070Y-91617287D01*
X131872022Y-91617287D01*
X131852975Y-91607763D01*
X131843451Y-91598240D01*
X131833927Y-91579192D01*
X131824403Y-91541097D01*
X131824403Y-91493478D01*
X131833927Y-91455382D01*
X131843451Y-91436335D01*
X131852975Y-91426811D01*
X131872022Y-91417287D01*
X132024403Y-91483954D02*
X132024403Y-91617287D01*
X132024403Y-91503001D02*
X132033927Y-91493478D01*
X132052974Y-91483954D01*
X132081546Y-91483954D01*
X132100594Y-91493478D01*
X132110117Y-91512525D01*
X132110117Y-91617287D01*
X132272022Y-91512525D02*
X132205355Y-91512525D01*
X132205355Y-91617287D02*
X132205355Y-91417287D01*
X132300593Y-91417287D01*
X135935143Y-92770952D02*
X136068476Y-92770952D01*
X135858952Y-92818571D02*
X136001810Y-92866190D01*
X136001810Y-92742380D01*
X136049429Y-92666190D02*
X136058952Y-92656666D01*
X136068476Y-92666190D01*
X136058952Y-92675714D01*
X136049429Y-92666190D01*
X136068476Y-92666190D01*
X135868476Y-92590000D02*
X135868476Y-92456666D01*
X136068476Y-92542381D01*
X135935143Y-92294762D02*
X136068476Y-92294762D01*
X135935143Y-92380476D02*
X136039905Y-92380476D01*
X136058952Y-92370952D01*
X136068476Y-92351905D01*
X136068476Y-92323333D01*
X136058952Y-92304285D01*
X136049429Y-92294762D01*
X135963714Y-92132857D02*
X135963714Y-92199524D01*
X136068476Y-92199524D02*
X135868476Y-92199524D01*
X135868476Y-92104286D01*
X133586476Y-92668571D02*
X133586476Y-92649523D01*
X133596000Y-92630475D01*
X133605524Y-92620952D01*
X133624571Y-92611428D01*
X133662667Y-92601904D01*
X133710286Y-92601904D01*
X133748381Y-92611428D01*
X133767429Y-92620952D01*
X133776952Y-92630475D01*
X133786476Y-92649523D01*
X133786476Y-92668571D01*
X133776952Y-92687618D01*
X133767429Y-92697142D01*
X133748381Y-92706666D01*
X133710286Y-92716190D01*
X133662667Y-92716190D01*
X133624571Y-92706666D01*
X133605524Y-92697142D01*
X133596000Y-92687618D01*
X133586476Y-92668571D01*
X133767429Y-92516190D02*
X133776952Y-92506666D01*
X133786476Y-92516190D01*
X133776952Y-92525714D01*
X133767429Y-92516190D01*
X133786476Y-92516190D01*
X133786476Y-92316190D02*
X133786476Y-92430476D01*
X133786476Y-92373333D02*
X133586476Y-92373333D01*
X133615048Y-92392381D01*
X133634095Y-92411428D01*
X133643619Y-92430476D01*
X133653143Y-92144762D02*
X133786476Y-92144762D01*
X133653143Y-92230476D02*
X133757905Y-92230476D01*
X133776952Y-92220952D01*
X133786476Y-92201905D01*
X133786476Y-92173333D01*
X133776952Y-92154285D01*
X133767429Y-92144762D01*
X133681714Y-91982857D02*
X133681714Y-92049524D01*
X133786476Y-92049524D02*
X133586476Y-92049524D01*
X133586476Y-91954286D01*
X126544476Y-83756571D02*
X126544476Y-83737523D01*
X126554000Y-83718475D01*
X126563524Y-83708952D01*
X126582571Y-83699428D01*
X126620667Y-83689904D01*
X126668286Y-83689904D01*
X126706381Y-83699428D01*
X126725429Y-83708952D01*
X126734952Y-83718475D01*
X126744476Y-83737523D01*
X126744476Y-83756571D01*
X126734952Y-83775618D01*
X126725429Y-83785142D01*
X126706381Y-83794666D01*
X126668286Y-83804190D01*
X126620667Y-83804190D01*
X126582571Y-83794666D01*
X126563524Y-83785142D01*
X126554000Y-83775618D01*
X126544476Y-83756571D01*
X126725429Y-83604190D02*
X126734952Y-83594666D01*
X126744476Y-83604190D01*
X126734952Y-83613714D01*
X126725429Y-83604190D01*
X126744476Y-83604190D01*
X126744476Y-83404190D02*
X126744476Y-83518476D01*
X126744476Y-83461333D02*
X126544476Y-83461333D01*
X126573048Y-83480381D01*
X126592095Y-83499428D01*
X126601619Y-83518476D01*
X126611143Y-83232762D02*
X126744476Y-83232762D01*
X126611143Y-83318476D02*
X126715905Y-83318476D01*
X126734952Y-83308952D01*
X126744476Y-83289905D01*
X126744476Y-83261333D01*
X126734952Y-83242285D01*
X126725429Y-83232762D01*
X126639714Y-83070857D02*
X126639714Y-83137524D01*
X126744476Y-83137524D02*
X126544476Y-83137524D01*
X126544476Y-83042286D01*
X124031524Y-82344571D02*
X124022000Y-82335047D01*
X124012476Y-82315999D01*
X124012476Y-82268380D01*
X124022000Y-82249333D01*
X124031524Y-82239809D01*
X124050571Y-82230285D01*
X124069619Y-82230285D01*
X124098190Y-82239809D01*
X124212476Y-82354095D01*
X124212476Y-82230285D01*
X124031524Y-82154095D02*
X124022000Y-82144571D01*
X124012476Y-82125523D01*
X124012476Y-82077904D01*
X124022000Y-82058857D01*
X124031524Y-82049333D01*
X124050571Y-82039809D01*
X124069619Y-82039809D01*
X124098190Y-82049333D01*
X124212476Y-82163619D01*
X124212476Y-82039809D01*
X124079143Y-81868381D02*
X124212476Y-81868381D01*
X124079143Y-81954095D02*
X124183905Y-81954095D01*
X124202952Y-81944571D01*
X124212476Y-81925524D01*
X124212476Y-81896952D01*
X124202952Y-81877904D01*
X124193429Y-81868381D01*
X124107714Y-81706476D02*
X124107714Y-81773143D01*
X124212476Y-81773143D02*
X124012476Y-81773143D01*
X124012476Y-81677905D01*
D10*
X131911429Y-91485715D02*
X131911429Y-91142858D01*
X132511429Y-91314287D02*
X131911429Y-91314287D01*
X132511429Y-90942858D02*
X131911429Y-90942858D01*
X132568571Y-90800001D02*
X132568571Y-90342858D01*
X132197143Y-90000001D02*
X132225714Y-89914287D01*
X132254286Y-89885715D01*
X132311429Y-89857144D01*
X132397143Y-89857144D01*
X132454286Y-89885715D01*
X132482857Y-89914287D01*
X132511429Y-89971429D01*
X132511429Y-90200001D01*
X131911429Y-90200001D01*
X131911429Y-90000001D01*
X131940000Y-89942858D01*
X131968571Y-89914287D01*
X132025714Y-89885715D01*
X132082857Y-89885715D01*
X132140000Y-89914287D01*
X132168571Y-89942858D01*
X132197143Y-90000001D01*
X132197143Y-90200001D01*
X132568571Y-89200001D02*
X132540000Y-89257144D01*
X132482857Y-89314287D01*
X132397143Y-89400001D01*
X132368571Y-89457144D01*
X132368571Y-89514287D01*
X132511429Y-89485715D02*
X132482857Y-89542858D01*
X132425714Y-89600001D01*
X132311429Y-89628572D01*
X132111429Y-89628572D01*
X131997143Y-89600001D01*
X131940000Y-89542858D01*
X131911429Y-89485715D01*
X131911429Y-89371429D01*
X131940000Y-89314287D01*
X131997143Y-89257144D01*
X132111429Y-89228572D01*
X132311429Y-89228572D01*
X132425714Y-89257144D01*
X132482857Y-89314287D01*
X132511429Y-89371429D01*
X132511429Y-89485715D01*
X131968571Y-89000001D02*
X131940000Y-88971430D01*
X131911429Y-88914287D01*
X131911429Y-88771430D01*
X131940000Y-88714287D01*
X131968571Y-88685716D01*
X132025714Y-88657144D01*
X132082857Y-88657144D01*
X132168571Y-88685716D01*
X132511429Y-89028573D01*
X132511429Y-88657144D01*
X131911429Y-88114287D02*
X131911429Y-88400001D01*
X132197143Y-88428572D01*
X132168571Y-88400001D01*
X132140000Y-88342858D01*
X132140000Y-88200001D01*
X132168571Y-88142858D01*
X132197143Y-88114287D01*
X132254286Y-88085715D01*
X132397143Y-88085715D01*
X132454286Y-88114287D01*
X132482857Y-88142858D01*
X132511429Y-88200001D01*
X132511429Y-88342858D01*
X132482857Y-88400001D01*
X132454286Y-88428572D01*
X131911429Y-87542858D02*
X131911429Y-87828572D01*
X132197143Y-87857143D01*
X132168571Y-87828572D01*
X132140000Y-87771429D01*
X132140000Y-87628572D01*
X132168571Y-87571429D01*
X132197143Y-87542858D01*
X132254286Y-87514286D01*
X132397143Y-87514286D01*
X132454286Y-87542858D01*
X132482857Y-87571429D01*
X132511429Y-87628572D01*
X132511429Y-87771429D01*
X132482857Y-87828572D01*
X132454286Y-87857143D01*
X131911429Y-87314286D02*
X131911429Y-86914286D01*
X132511429Y-87171429D01*
X131911429Y-86571428D02*
X131911429Y-86514285D01*
X131940000Y-86457142D01*
X131968571Y-86428571D01*
X132025714Y-86400000D01*
X132140000Y-86371428D01*
X132282857Y-86371428D01*
X132397143Y-86400000D01*
X132454286Y-86428571D01*
X132482857Y-86457142D01*
X132511429Y-86514285D01*
X132511429Y-86571428D01*
X132482857Y-86628571D01*
X132454286Y-86657142D01*
X132397143Y-86685714D01*
X132282857Y-86714285D01*
X132140000Y-86714285D01*
X132025714Y-86685714D01*
X131968571Y-86657142D01*
X131940000Y-86628571D01*
X131911429Y-86571428D01*
X127460091Y-94860297D02*
X127431520Y-94831726D01*
X127402949Y-94774583D01*
X127402949Y-94631726D01*
X127431520Y-94574583D01*
X127460091Y-94546012D01*
X127517234Y-94517440D01*
X127574377Y-94517440D01*
X127660091Y-94546012D01*
X128002949Y-94888869D01*
X128002949Y-94517440D01*
X127460091Y-94288868D02*
X127431520Y-94260297D01*
X127402949Y-94203154D01*
X127402949Y-94060297D01*
X127431520Y-94003154D01*
X127460091Y-93974583D01*
X127517234Y-93946011D01*
X127574377Y-93946011D01*
X127660091Y-93974583D01*
X128002949Y-94317440D01*
X128002949Y-93946011D01*
X127602949Y-93431725D02*
X128002949Y-93431725D01*
X127602949Y-93688868D02*
X127917234Y-93688868D01*
X127974377Y-93660296D01*
X128002949Y-93603154D01*
X128002949Y-93517439D01*
X127974377Y-93460296D01*
X127945806Y-93431725D01*
X128002949Y-93146011D02*
X127402949Y-93146011D01*
X127688663Y-93146011D02*
X127688663Y-92803154D01*
X128002949Y-92803154D02*
X127402949Y-92803154D01*
D11*
X125016476Y-87863333D02*
X125016476Y-87977619D01*
X125016476Y-87920476D02*
X124816476Y-87920476D01*
X124845048Y-87939524D01*
X124864095Y-87958571D01*
X124873619Y-87977619D01*
X124816476Y-87739524D02*
X124816476Y-87720476D01*
X124826000Y-87701428D01*
X124835524Y-87691905D01*
X124854571Y-87682381D01*
X124892667Y-87672857D01*
X124940286Y-87672857D01*
X124978381Y-87682381D01*
X124997429Y-87691905D01*
X125006952Y-87701428D01*
X125016476Y-87720476D01*
X125016476Y-87739524D01*
X125006952Y-87758571D01*
X124997429Y-87768095D01*
X124978381Y-87777619D01*
X124940286Y-87787143D01*
X124892667Y-87787143D01*
X124854571Y-87777619D01*
X124835524Y-87768095D01*
X124826000Y-87758571D01*
X124816476Y-87739524D01*
X124883143Y-87501429D02*
X125016476Y-87501429D01*
X124883143Y-87587143D02*
X124987905Y-87587143D01*
X125006952Y-87577619D01*
X125016476Y-87558572D01*
X125016476Y-87530000D01*
X125006952Y-87510952D01*
X124997429Y-87501429D01*
X125016476Y-87406191D02*
X124816476Y-87406191D01*
X124911714Y-87406191D02*
X124911714Y-87291905D01*
X125016476Y-87291905D02*
X124816476Y-87291905D01*
X129846476Y-83742285D02*
X129846476Y-83780380D01*
X129856000Y-83799428D01*
X129865524Y-83808951D01*
X129894095Y-83827999D01*
X129932190Y-83837523D01*
X130008381Y-83837523D01*
X130027429Y-83827999D01*
X130036952Y-83818475D01*
X130046476Y-83799428D01*
X130046476Y-83761332D01*
X130036952Y-83742285D01*
X130027429Y-83732761D01*
X130008381Y-83723237D01*
X129960762Y-83723237D01*
X129941714Y-83732761D01*
X129932190Y-83742285D01*
X129922667Y-83761332D01*
X129922667Y-83799428D01*
X129932190Y-83818475D01*
X129941714Y-83827999D01*
X129960762Y-83837523D01*
X130027429Y-83637523D02*
X130036952Y-83627999D01*
X130046476Y-83637523D01*
X130036952Y-83647047D01*
X130027429Y-83637523D01*
X130046476Y-83637523D01*
X130046476Y-83437523D02*
X130046476Y-83551809D01*
X130046476Y-83494666D02*
X129846476Y-83494666D01*
X129875048Y-83513714D01*
X129894095Y-83532761D01*
X129903619Y-83551809D01*
X130046476Y-83342285D02*
X130046476Y-83304190D01*
X130036952Y-83285142D01*
X130027429Y-83275618D01*
X129998857Y-83256571D01*
X129960762Y-83247047D01*
X129884571Y-83247047D01*
X129865524Y-83256571D01*
X129856000Y-83266095D01*
X129846476Y-83285142D01*
X129846476Y-83323238D01*
X129856000Y-83342285D01*
X129865524Y-83351809D01*
X129884571Y-83361333D01*
X129932190Y-83361333D01*
X129951238Y-83351809D01*
X129960762Y-83342285D01*
X129970286Y-83323238D01*
X129970286Y-83285142D01*
X129960762Y-83266095D01*
X129951238Y-83256571D01*
X129932190Y-83247047D01*
X130046476Y-83161333D02*
X129846476Y-83161333D01*
X129989333Y-83094666D01*
X129846476Y-83028000D01*
X130046476Y-83028000D01*
X129522476Y-85542285D02*
X129522476Y-85580380D01*
X129532000Y-85599428D01*
X129541524Y-85608951D01*
X129570095Y-85627999D01*
X129608190Y-85637523D01*
X129684381Y-85637523D01*
X129703429Y-85627999D01*
X129712952Y-85618475D01*
X129722476Y-85599428D01*
X129722476Y-85561332D01*
X129712952Y-85542285D01*
X129703429Y-85532761D01*
X129684381Y-85523237D01*
X129636762Y-85523237D01*
X129617714Y-85532761D01*
X129608190Y-85542285D01*
X129598667Y-85561332D01*
X129598667Y-85599428D01*
X129608190Y-85618475D01*
X129617714Y-85627999D01*
X129636762Y-85637523D01*
X129703429Y-85437523D02*
X129712952Y-85427999D01*
X129722476Y-85437523D01*
X129712952Y-85447047D01*
X129703429Y-85437523D01*
X129722476Y-85437523D01*
X129522476Y-85256571D02*
X129522476Y-85294666D01*
X129532000Y-85313714D01*
X129541524Y-85323237D01*
X129570095Y-85342285D01*
X129608190Y-85351809D01*
X129684381Y-85351809D01*
X129703429Y-85342285D01*
X129712952Y-85332761D01*
X129722476Y-85313714D01*
X129722476Y-85275618D01*
X129712952Y-85256571D01*
X129703429Y-85247047D01*
X129684381Y-85237523D01*
X129636762Y-85237523D01*
X129617714Y-85247047D01*
X129608190Y-85256571D01*
X129598667Y-85275618D01*
X129598667Y-85313714D01*
X129608190Y-85332761D01*
X129617714Y-85342285D01*
X129636762Y-85351809D01*
X129522476Y-85056571D02*
X129522476Y-85151809D01*
X129617714Y-85161333D01*
X129608190Y-85151809D01*
X129598667Y-85132761D01*
X129598667Y-85085142D01*
X129608190Y-85066095D01*
X129617714Y-85056571D01*
X129636762Y-85047047D01*
X129684381Y-85047047D01*
X129703429Y-85056571D01*
X129712952Y-85066095D01*
X129722476Y-85085142D01*
X129722476Y-85132761D01*
X129712952Y-85151809D01*
X129703429Y-85161333D01*
X129722476Y-84961333D02*
X129522476Y-84961333D01*
X129665333Y-84894666D01*
X129522476Y-84828000D01*
X129722476Y-84828000D01*
X131437143Y-83742285D02*
X131570476Y-83742285D01*
X131360952Y-83789904D02*
X131503810Y-83837523D01*
X131503810Y-83713713D01*
X131551429Y-83637523D02*
X131560952Y-83627999D01*
X131570476Y-83637523D01*
X131560952Y-83647047D01*
X131551429Y-83637523D01*
X131570476Y-83637523D01*
X131389524Y-83551809D02*
X131380000Y-83542285D01*
X131370476Y-83523237D01*
X131370476Y-83475618D01*
X131380000Y-83456571D01*
X131389524Y-83447047D01*
X131408571Y-83437523D01*
X131427619Y-83437523D01*
X131456190Y-83447047D01*
X131570476Y-83561333D01*
X131570476Y-83437523D01*
X131389524Y-83361333D02*
X131380000Y-83351809D01*
X131370476Y-83332761D01*
X131370476Y-83285142D01*
X131380000Y-83266095D01*
X131389524Y-83256571D01*
X131408571Y-83247047D01*
X131427619Y-83247047D01*
X131456190Y-83256571D01*
X131570476Y-83370857D01*
X131570476Y-83247047D01*
X131570476Y-83161333D02*
X131370476Y-83161333D01*
X131513333Y-83094666D01*
X131370476Y-83028000D01*
X131570476Y-83028000D01*
X132980190Y-83799428D02*
X132970667Y-83818475D01*
X132961143Y-83827999D01*
X132942095Y-83837523D01*
X132932571Y-83837523D01*
X132913524Y-83827999D01*
X132904000Y-83818475D01*
X132894476Y-83799428D01*
X132894476Y-83761332D01*
X132904000Y-83742285D01*
X132913524Y-83732761D01*
X132932571Y-83723237D01*
X132942095Y-83723237D01*
X132961143Y-83732761D01*
X132970667Y-83742285D01*
X132980190Y-83761332D01*
X132980190Y-83799428D01*
X132989714Y-83818475D01*
X132999238Y-83827999D01*
X133018286Y-83837523D01*
X133056381Y-83837523D01*
X133075429Y-83827999D01*
X133084952Y-83818475D01*
X133094476Y-83799428D01*
X133094476Y-83761332D01*
X133084952Y-83742285D01*
X133075429Y-83732761D01*
X133056381Y-83723237D01*
X133018286Y-83723237D01*
X132999238Y-83732761D01*
X132989714Y-83742285D01*
X132980190Y-83761332D01*
X133075429Y-83637523D02*
X133084952Y-83627999D01*
X133094476Y-83637523D01*
X133084952Y-83647047D01*
X133075429Y-83637523D01*
X133094476Y-83637523D01*
X132894476Y-83504190D02*
X132894476Y-83485142D01*
X132904000Y-83466094D01*
X132913524Y-83456571D01*
X132932571Y-83447047D01*
X132970667Y-83437523D01*
X133018286Y-83437523D01*
X133056381Y-83447047D01*
X133075429Y-83456571D01*
X133084952Y-83466094D01*
X133094476Y-83485142D01*
X133094476Y-83504190D01*
X133084952Y-83523237D01*
X133075429Y-83532761D01*
X133056381Y-83542285D01*
X133018286Y-83551809D01*
X132970667Y-83551809D01*
X132932571Y-83542285D01*
X132913524Y-83532761D01*
X132904000Y-83523237D01*
X132894476Y-83504190D01*
X132894476Y-83266095D02*
X132894476Y-83304190D01*
X132904000Y-83323238D01*
X132913524Y-83332761D01*
X132942095Y-83351809D01*
X132980190Y-83361333D01*
X133056381Y-83361333D01*
X133075429Y-83351809D01*
X133084952Y-83342285D01*
X133094476Y-83323238D01*
X133094476Y-83285142D01*
X133084952Y-83266095D01*
X133075429Y-83256571D01*
X133056381Y-83247047D01*
X133008762Y-83247047D01*
X132989714Y-83256571D01*
X132980190Y-83266095D01*
X132970667Y-83285142D01*
X132970667Y-83323238D01*
X132980190Y-83342285D01*
X132989714Y-83351809D01*
X133008762Y-83361333D01*
X133094476Y-83161333D02*
X132894476Y-83161333D01*
X133037333Y-83094666D01*
X132894476Y-83028000D01*
X133094476Y-83028000D01*
X134418476Y-83885142D02*
X134418476Y-83866094D01*
X134428000Y-83847046D01*
X134437524Y-83837523D01*
X134456571Y-83827999D01*
X134494667Y-83818475D01*
X134542286Y-83818475D01*
X134580381Y-83827999D01*
X134599429Y-83837523D01*
X134608952Y-83847046D01*
X134618476Y-83866094D01*
X134618476Y-83885142D01*
X134608952Y-83904189D01*
X134599429Y-83913713D01*
X134580381Y-83923237D01*
X134542286Y-83932761D01*
X134494667Y-83932761D01*
X134456571Y-83923237D01*
X134437524Y-83913713D01*
X134428000Y-83904189D01*
X134418476Y-83885142D01*
X134599429Y-83732761D02*
X134608952Y-83723237D01*
X134618476Y-83732761D01*
X134608952Y-83742285D01*
X134599429Y-83732761D01*
X134618476Y-83732761D01*
X134418476Y-83551809D02*
X134418476Y-83589904D01*
X134428000Y-83608952D01*
X134437524Y-83618475D01*
X134466095Y-83637523D01*
X134504190Y-83647047D01*
X134580381Y-83647047D01*
X134599429Y-83637523D01*
X134608952Y-83627999D01*
X134618476Y-83608952D01*
X134618476Y-83570856D01*
X134608952Y-83551809D01*
X134599429Y-83542285D01*
X134580381Y-83532761D01*
X134532762Y-83532761D01*
X134513714Y-83542285D01*
X134504190Y-83551809D01*
X134494667Y-83570856D01*
X134494667Y-83608952D01*
X134504190Y-83627999D01*
X134513714Y-83637523D01*
X134532762Y-83647047D01*
X134618476Y-83437523D02*
X134618476Y-83399428D01*
X134608952Y-83380380D01*
X134599429Y-83370856D01*
X134570857Y-83351809D01*
X134532762Y-83342285D01*
X134456571Y-83342285D01*
X134437524Y-83351809D01*
X134428000Y-83361333D01*
X134418476Y-83380380D01*
X134418476Y-83418476D01*
X134428000Y-83437523D01*
X134437524Y-83447047D01*
X134456571Y-83456571D01*
X134504190Y-83456571D01*
X134523238Y-83447047D01*
X134532762Y-83437523D01*
X134542286Y-83418476D01*
X134542286Y-83380380D01*
X134532762Y-83361333D01*
X134523238Y-83351809D01*
X134504190Y-83342285D01*
X134504190Y-83228000D02*
X134494667Y-83247047D01*
X134485143Y-83256571D01*
X134466095Y-83266095D01*
X134456571Y-83266095D01*
X134437524Y-83256571D01*
X134428000Y-83247047D01*
X134418476Y-83228000D01*
X134418476Y-83189904D01*
X134428000Y-83170857D01*
X134437524Y-83161333D01*
X134456571Y-83151809D01*
X134466095Y-83151809D01*
X134485143Y-83161333D01*
X134494667Y-83170857D01*
X134504190Y-83189904D01*
X134504190Y-83228000D01*
X134513714Y-83247047D01*
X134523238Y-83256571D01*
X134542286Y-83266095D01*
X134580381Y-83266095D01*
X134599429Y-83256571D01*
X134608952Y-83247047D01*
X134618476Y-83228000D01*
X134618476Y-83189904D01*
X134608952Y-83170857D01*
X134599429Y-83161333D01*
X134580381Y-83151809D01*
X134542286Y-83151809D01*
X134523238Y-83161333D01*
X134513714Y-83170857D01*
X134504190Y-83189904D01*
X134618476Y-83066095D02*
X134418476Y-83066095D01*
X134561333Y-82999428D01*
X134418476Y-82932762D01*
X134618476Y-82932762D01*
X134418476Y-87298285D02*
X134418476Y-87336380D01*
X134428000Y-87355428D01*
X134437524Y-87364951D01*
X134466095Y-87383999D01*
X134504190Y-87393523D01*
X134580381Y-87393523D01*
X134599429Y-87383999D01*
X134608952Y-87374475D01*
X134618476Y-87355428D01*
X134618476Y-87317332D01*
X134608952Y-87298285D01*
X134599429Y-87288761D01*
X134580381Y-87279237D01*
X134532762Y-87279237D01*
X134513714Y-87288761D01*
X134504190Y-87298285D01*
X134494667Y-87317332D01*
X134494667Y-87355428D01*
X134504190Y-87374475D01*
X134513714Y-87383999D01*
X134532762Y-87393523D01*
X134599429Y-87193523D02*
X134608952Y-87183999D01*
X134618476Y-87193523D01*
X134608952Y-87203047D01*
X134599429Y-87193523D01*
X134618476Y-87193523D01*
X134418476Y-87060190D02*
X134418476Y-87041142D01*
X134428000Y-87022094D01*
X134437524Y-87012571D01*
X134456571Y-87003047D01*
X134494667Y-86993523D01*
X134542286Y-86993523D01*
X134580381Y-87003047D01*
X134599429Y-87012571D01*
X134608952Y-87022094D01*
X134618476Y-87041142D01*
X134618476Y-87060190D01*
X134608952Y-87079237D01*
X134599429Y-87088761D01*
X134580381Y-87098285D01*
X134542286Y-87107809D01*
X134494667Y-87107809D01*
X134456571Y-87098285D01*
X134437524Y-87088761D01*
X134428000Y-87079237D01*
X134418476Y-87060190D01*
X134485143Y-86822095D02*
X134618476Y-86822095D01*
X134408952Y-86869714D02*
X134551810Y-86917333D01*
X134551810Y-86793523D01*
X134618476Y-86717333D02*
X134418476Y-86717333D01*
X134561333Y-86650666D01*
X134418476Y-86584000D01*
X134618476Y-86584000D01*
X134094476Y-89203047D02*
X134094476Y-89069713D01*
X134294476Y-89155428D01*
X134275429Y-88993523D02*
X134284952Y-88983999D01*
X134294476Y-88993523D01*
X134284952Y-89003047D01*
X134275429Y-88993523D01*
X134294476Y-88993523D01*
X134180190Y-88869714D02*
X134170667Y-88888761D01*
X134161143Y-88898285D01*
X134142095Y-88907809D01*
X134132571Y-88907809D01*
X134113524Y-88898285D01*
X134104000Y-88888761D01*
X134094476Y-88869714D01*
X134094476Y-88831618D01*
X134104000Y-88812571D01*
X134113524Y-88803047D01*
X134132571Y-88793523D01*
X134142095Y-88793523D01*
X134161143Y-88803047D01*
X134170667Y-88812571D01*
X134180190Y-88831618D01*
X134180190Y-88869714D01*
X134189714Y-88888761D01*
X134199238Y-88898285D01*
X134218286Y-88907809D01*
X134256381Y-88907809D01*
X134275429Y-88898285D01*
X134284952Y-88888761D01*
X134294476Y-88869714D01*
X134294476Y-88831618D01*
X134284952Y-88812571D01*
X134275429Y-88803047D01*
X134256381Y-88793523D01*
X134218286Y-88793523D01*
X134199238Y-88803047D01*
X134189714Y-88812571D01*
X134180190Y-88831618D01*
X134094476Y-88726857D02*
X134094476Y-88593523D01*
X134294476Y-88679238D01*
X134294476Y-88517333D02*
X134094476Y-88517333D01*
X134237333Y-88450666D01*
X134094476Y-88384000D01*
X134294476Y-88384000D01*
M02*
