M48
;DRILL file {KiCad 0.201602151416+6558~42~ubuntu14.04.1-product} date Tue 23 Feb 2016 18:37:10 GMT
;FORMAT={-:-/ absolute / metric / decimal}
FMAT,2
METRIC,TZ
T1C0.330
T2C1.000
%
G90
G05
M71
T1
X124.75Y-90.5
X125.1Y-79.7
X125.9Y-97.6
X126.617Y-90.516
X128.94Y-88.9
X129.036Y-82.626
X129.504Y-91.475
X129.54Y-88.3
X129.54Y-88.9
X129.54Y-89.5
X130.14Y-88.9
X131.3Y-82.7
X132.344Y-90.063
X132.699Y-87.092
X134.393Y-86.393
T2
X127.Y-80.01
X129.54Y-80.01
X129.54Y-97.79
X132.08Y-80.01
X132.08Y-97.79
X134.62Y-80.01
T0
M30
