M48
;DRILL file {kicad (2014-12-19 BZR 5328)-product} date 23/12/2014 01:10:08
;FORMAT={-:-/ absolute / inch / decimal}
FMAT,2
INCH,TZ
T1C0.013
T2C0.039
%
G90
G05
M72
T1
X4.9114Y-3.563
X4.9252Y-3.1378
X4.9567Y-3.8425
X4.9849Y-3.5636
X5.0764Y-3.5
X5.0801Y-3.253
X5.0986Y-3.6014
X5.1Y-3.4764
X5.1Y-3.5
X5.1Y-3.5236
X5.1236Y-3.5
X5.1693Y-3.2559
X5.2104Y-3.5458
X5.2244Y-3.4288
X5.2911Y-3.4013
T2
X5.Y-3.15
X5.1Y-3.15
X5.1Y-3.85
X5.2Y-3.15
X5.2Y-3.85
X5.3Y-3.15
T0
M30
