%TF.FileFunction,*%
%FSLAX46Y46*%
G04 Gerber Fmt 4.6, Leading zero omitted, Abs format (unit mm)*
G04 Created by KiCad (PCBNEW (2014-12-19 BZR 5328)-product) date 23/12/2014 01:10:06*
%MOMM*%
G01*
G04 APERTURE LIST*
%ADD10C,0.127000*%
%ADD11C,0.050000*%
G04 APERTURE END LIST*
D10*
D11*
X129626000Y-94175000D02*
X134026000Y-94175000D01*
X134026000Y-94175000D02*
X134026000Y-96325000D01*
X134026000Y-96325000D02*
X129626000Y-96325000D01*
X129626000Y-94175000D02*
X129626000Y-96325000D01*
X132364000Y-92822000D02*
X132364000Y-94122000D01*
X132364000Y-94122000D02*
X129764000Y-94122000D01*
X129764000Y-94122000D02*
X129764000Y-92822000D01*
X129764000Y-92822000D02*
X132364000Y-92822000D01*
X132362498Y-91476811D02*
X132362498Y-92776811D01*
X132362498Y-92776811D02*
X129762498Y-92776811D01*
X129762498Y-92776811D02*
X129762498Y-91476811D01*
X129762498Y-91476811D02*
X132362498Y-91476811D01*
X136003000Y-89840000D02*
X136003000Y-93040000D01*
X136003000Y-93040000D02*
X134253000Y-93040000D01*
X134253000Y-93040000D02*
X134253000Y-89840000D01*
X134253000Y-89840000D02*
X136003000Y-89840000D01*
X133746000Y-92740000D02*
X132446000Y-92740000D01*
X132446000Y-92740000D02*
X132446000Y-90140000D01*
X132446000Y-90140000D02*
X133746000Y-90140000D01*
X133746000Y-90140000D02*
X133746000Y-92740000D01*
X126604000Y-83028000D02*
X127904000Y-83028000D01*
X127904000Y-83028000D02*
X127904000Y-85628000D01*
X127904000Y-85628000D02*
X126604000Y-85628000D01*
X126604000Y-85628000D02*
X126604000Y-83028000D01*
X124147000Y-85766000D02*
X124147000Y-81366000D01*
X124147000Y-81366000D02*
X126297000Y-81366000D01*
X126297000Y-81366000D02*
X126297000Y-85766000D01*
X124147000Y-85766000D02*
X126297000Y-85766000D01*
X129540000Y-99165000D02*
X132080000Y-99165000D01*
X129540000Y-96415000D02*
X132080000Y-96415000D01*
X132080000Y-99165000D02*
G75*
G03X132080000Y-96415000I0J1375000D01*
G01*
X129540000Y-96415000D02*
G75*
G03X129540000Y-99165000I0J-1375000D01*
G01*
X127000000Y-81385000D02*
X129540000Y-81385000D01*
X127000000Y-78635000D02*
X129540000Y-78635000D01*
X129540000Y-81385000D02*
G75*
G03X129540000Y-78635000I0J1375000D01*
G01*
X127000000Y-78635000D02*
G75*
G03X127000000Y-81385000I0J-1375000D01*
G01*
X132080000Y-81385000D02*
X134620000Y-81385000D01*
X132080000Y-78635000D02*
X134620000Y-78635000D01*
X134620000Y-81385000D02*
G75*
G03X134620000Y-78635000I0J1375000D01*
G01*
X132080000Y-78635000D02*
G75*
G03X132080000Y-81385000I0J-1375000D01*
G01*
X127290000Y-86650000D02*
X131790000Y-86650000D01*
X131790000Y-86650000D02*
X131790000Y-91150000D01*
X131790000Y-91150000D02*
X127290000Y-91150000D01*
X127290000Y-91150000D02*
X127290000Y-86650000D01*
X123915520Y-91317440D02*
X123915520Y-96317440D01*
X123915520Y-96317440D02*
X129515520Y-96317440D01*
X129515520Y-96317440D02*
X129515520Y-91317440D01*
X129515520Y-91317440D02*
X123915520Y-91317440D01*
X124176000Y-89480000D02*
X124176000Y-85780000D01*
X124176000Y-85780000D02*
X126776000Y-85780000D01*
X126776000Y-85780000D02*
X126776000Y-89480000D01*
X126776000Y-89480000D02*
X124176000Y-89480000D01*
X129906000Y-83028000D02*
X131206000Y-83028000D01*
X131206000Y-83028000D02*
X131206000Y-85628000D01*
X131206000Y-85628000D02*
X129906000Y-85628000D01*
X129906000Y-85628000D02*
X129906000Y-83028000D01*
X129682000Y-85628000D02*
X128382000Y-85628000D01*
X128382000Y-85628000D02*
X128382000Y-83028000D01*
X128382000Y-83028000D02*
X129682000Y-83028000D01*
X129682000Y-83028000D02*
X129682000Y-85628000D01*
X131430000Y-83028000D02*
X132730000Y-83028000D01*
X132730000Y-83028000D02*
X132730000Y-85628000D01*
X132730000Y-85628000D02*
X131430000Y-85628000D01*
X131430000Y-85628000D02*
X131430000Y-83028000D01*
X132954000Y-83028000D02*
X134254000Y-83028000D01*
X134254000Y-83028000D02*
X134254000Y-85628000D01*
X134254000Y-85628000D02*
X132954000Y-85628000D01*
X132954000Y-85628000D02*
X132954000Y-83028000D01*
X134478000Y-83028000D02*
X135778000Y-83028000D01*
X135778000Y-83028000D02*
X135778000Y-85628000D01*
X135778000Y-85628000D02*
X134478000Y-85628000D01*
X134478000Y-85628000D02*
X134478000Y-83028000D01*
X134478000Y-86584000D02*
X135778000Y-86584000D01*
X135778000Y-86584000D02*
X135778000Y-89184000D01*
X135778000Y-89184000D02*
X134478000Y-89184000D01*
X134478000Y-89184000D02*
X134478000Y-86584000D01*
X134254000Y-89184000D02*
X132954000Y-89184000D01*
X132954000Y-89184000D02*
X132954000Y-86584000D01*
X132954000Y-86584000D02*
X134254000Y-86584000D01*
X134254000Y-86584000D02*
X134254000Y-89184000D01*
M02*
