%TF.FileFunction,Paste,Top*%
%FSLAX46Y46*%
G04 Gerber Fmt 4.6, Leading zero omitted, Abs format (unit mm)*
G04 Created by KiCad (PCBNEW (2014-12-19 BZR 5328)-product) date 23/12/2014 01:10:06*
%MOMM*%
G01*
G04 APERTURE LIST*
%ADD10C,0.127000*%
%ADD11R,0.750000X1.550000*%
%ADD12R,0.450000X0.650000*%
%ADD13R,1.150000X0.750000*%
%ADD14R,0.650000X0.450000*%
%ADD15R,1.550000X0.750000*%
%ADD16R,0.820000X0.820000*%
%ADD17O,0.200000X0.720000*%
%ADD18O,0.720000X0.200000*%
%ADD19R,1.400000X3.500000*%
%ADD20R,2.000000X0.850000*%
G04 APERTURE END LIST*
D10*
D11*
X130301000Y-95250000D03*
X133351000Y-95250000D03*
D12*
X130339000Y-93472000D03*
X131789000Y-93472000D03*
X130337498Y-92126811D03*
X131787498Y-92126811D03*
D13*
X135128000Y-90515000D03*
X135128000Y-92365000D03*
D14*
X133096000Y-90715000D03*
X133096000Y-92165000D03*
X127254000Y-85053000D03*
X127254000Y-83603000D03*
D15*
X125222000Y-85091000D03*
X125222000Y-82041000D03*
D16*
X128990000Y-88350000D03*
X130090000Y-88350000D03*
X130090000Y-89450000D03*
X128990000Y-89450000D03*
D17*
X128540000Y-90550000D03*
X129040000Y-90550000D03*
X129540000Y-90550000D03*
X130040000Y-90550000D03*
X130540000Y-90550000D03*
X130540000Y-87250000D03*
X130040000Y-87250000D03*
X129540000Y-87250000D03*
X129040000Y-87250000D03*
X128540000Y-87250000D03*
D18*
X131190000Y-89900000D03*
X131190000Y-89400000D03*
X131190000Y-88900000D03*
X131190000Y-88400000D03*
X131190000Y-87900000D03*
X127890000Y-87900000D03*
X127890000Y-88400000D03*
X127890000Y-88900000D03*
X127890000Y-89400000D03*
X127890000Y-89900000D03*
D19*
X128740520Y-93817440D03*
X124690520Y-93817440D03*
D20*
X125476000Y-88755000D03*
X125476000Y-86505000D03*
D14*
X130556000Y-85053000D03*
X130556000Y-83603000D03*
X129032000Y-83603000D03*
X129032000Y-85053000D03*
X132080000Y-85053000D03*
X132080000Y-83603000D03*
X133604000Y-85053000D03*
X133604000Y-83603000D03*
X135128000Y-85053000D03*
X135128000Y-83603000D03*
X135128000Y-88609000D03*
X135128000Y-87159000D03*
X133604000Y-87159000D03*
X133604000Y-88609000D03*
M02*
